<svg xmlns="http://www.w3.org/2000/svg" width="128" height="128" viewBox="0 0 24 24"><g fill="none" stroke="#000000" stroke-linecap="round" stroke-linejoin="round" stroke-width="2"><path stroke-dasharray="10" stroke-dashoffset="10" d="M3 5l2 2l4 -4"><animate fill="freeze" attributeName="stroke-dashoffset" dur="0.2s" values="10;0"/></path><path stroke-dasharray="10" stroke-dashoffset="10" d="M3 12l2 2l4 -4"><animate fill="freeze" attributeName="stroke-dashoffset" begin="0.4s" dur="0.2s" values="10;0"/></path><path stroke-dasharray="10" stroke-dashoffset="10" d="M3 19l2 2l4 -4"><animate fill="freeze" attributeName="stroke-dashoffset" begin="0.8s" dur="0.2s" values="10;0"/></path><g stroke-dasharray="24" stroke-dashoffset="24" stroke-width="1"><path d="M11.5 5c0 -0.83 0.67 -1.5 1.5 -1.5h6c0.83 0 1.5 0.67 1.5 1.5c0 0.83 -0.67 1.5 -1.5 1.5h-6c-0.83 0 -1.5 -0.67 -1.5 -1.5Z"><animate fill="freeze" attributeName="stroke-dashoffset" begin="0.2s" dur="0.2s" values="24;0"/></path><path d="M11.5 12c0 -0.83 0.67 -1.5 1.5 -1.5h6c0.83 0 1.5 0.67 1.5 1.5c0 0.83 -0.67 1.5 -1.5 1.5h-6c-0.83 0 -1.5 -0.67 -1.5 -1.5Z"><animate fill="freeze" attributeName="stroke-dashoffset" begin="0.6s" dur="0.2s" values="24;0"/></path><path d="M11.5 19c0 -0.83 0.67 -1.5 1.5 -1.5h6c0.83 0 1.5 0.67 1.5 1.5c0 0.83 -0.67 1.5 -1.5 1.5h-6c-0.83 0 -1.5 -0.67 -1.5 -1.5Z"><animate fill="freeze" attributeName="stroke-dashoffset" begin="1s" dur="0.2s" values="24;0"/></path></g></g></svg>